<?xml version="1.0" encoding="utf-8"?>
<!-- Generator: Adobe Illustrator 28.1.0, SVG Export Plug-In . SVG Version: 6.00 Build 0)  -->
<svg version="1.1" id="Camada_1" xmlns="http://www.w3.org/2000/svg" xmlns:xlink="http://www.w3.org/1999/xlink" x="0px" y="0px"
	 viewBox="0 0 100 100" style="enable-background:new 0 0 100 100;" xml:space="preserve">
<style type="text/css">
	.st0{fill:#2B2C30;}
	.st1{fill:#63DBF9;}
</style>
<circle class="st0" cx="50" cy="50" r="50"/>
<path class="st1" d="M24,61.2l-10.7-9.3l11.1-10.5l0.1-0.2c0.3-0.6,0.3-1.3,0-1.9l-0.1-0.2l-1.3-1.4l-0.2-0.1
	c-0.6-0.3-1.1-0.3-1.5-0.2h-0.3l-13.7,13l-0.1,0.2C7.1,50.9,7,51.2,7,51.5v1.4l0.2,0.3c0.1,0.1,0.2,0.4,0.5,0.7l13.1,11.4l0.3,0.2
	c0.3,0.2,0.6,0.3,0.9,0.3c0.8,0,1.3-0.4,1.6-0.9l1-1l0.1-0.2c0.2-0.3,0.2-0.6,0.2-0.9C24.8,62.1,24.5,61.5,24,61.2z"/>
<path class="st1" d="M92.8,49.7c-0.1-0.1-0.2-0.4-0.5-0.7l-13-11.3L79,37.5c-0.3-0.2-0.6-0.2-0.9-0.2c-0.7,0-1.2,0.4-1.4,0.7
	l-1.1,1.2l-0.1,0.2c-0.2,0.3-0.3,0.6-0.3,0.9c0,0.8,0.4,1.2,0.8,1.5l10.7,9.3L75.8,61.4c-0.8,0.8-0.8,1.9,0,2.6l1.2,1.3l0.2,0.1
	c0.3,0.2,0.6,0.3,0.9,0.3c0.2,0,0.9-0.1,1.3-0.5l13.2-12.5l0.1-0.2c0.2-0.3,0.2-0.6,0.2-0.9v-1.4L92.8,49.7z"/>
<path class="st1" d="M45.8,50L45.8,50L45.8,50z"/>
<path class="st1" d="M46.6,49.3c-2.1-2.4-3.7-4.7-4.9-6.8s-1.8-4.2-1.7-6.2c0-1.9,0.8-3.7,2.4-5.5l0.6-0.6c1.1-0.9,2.6-1.7,4.5-2.2
	c1.8-0.6,3.8-0.7,5.9-0.2c1.9,0.4,3.7,1.5,5.1,3.1c0.3,0.4,0.7,0.8,1,1.1l0.8,1.1l1-0.7c0.1-0.1,0.2-0.1,0.3-0.2c0,0,0.1,0,0.1-0.1
	l0.1-0.1l0.5-0.6V31c0-0.2,0-0.8-1.3-2.2c-1-1.1-2.2-2-3.5-2.7c-1.4-0.8-3-1.4-5.2-1.7h-0.1c-0.2,0-0.5,0-0.7,0c-0.3,0-0.6,0-0.9,0
	c-4.1,0-7.6,1.2-10.3,3.6l-0.5,0.5c-3.9,3.9-5.8,7.8-5.6,11.5c0.1,3.5,1.1,6.7,2.9,9.4c1.6,2.3,3,4.2,4.1,5.4l20.6,23.6l0.4,0.7
	l8.6-1.3L46.6,49.3z"/>
<path class="st1" d="M39.3,27.9l0.5-0.5c0.6-0.6,1.3-1.1,2-1.5l-4.2-4.7l-8.5,1.2l7.4,8.7C37.3,30,38.3,28.9,39.3,27.9z"/>
<path class="st1" d="M58.8,45.5L45.1,29.8c-0.6,0.3-1.2,0.7-1.6,1L43,31.3c-1.4,1.5-2.1,3-2.2,4.6l12.7,14.7
	c2.1,2.4,3.7,4.7,4.9,6.8s1.8,4.2,1.7,6.3v0.1l3.4,3.9c1.7-2.6,2.5-5.1,2.4-7.5c-0.1-3.5-1.1-6.6-2.9-9.4
	C61,48.1,59.8,46.5,58.8,45.5z"/>
<path class="st1" d="M54.2,70.6L54,70.7c-1,0.6-2.3,1.1-3.4,1.4c-1.8,0.5-3.8,0.6-5.9,0.2c-2-0.4-3.9-1.6-5.4-3.4l-1.2-1.5l-3.3,0.7
	l1,1.7c0.3,0.5,0.7,1,1.1,1.5c0.9,1,2.1,2,3.5,2.8s3,1.4,5.2,1.7h0.1c0.2,0,0.5,0,0.7,0c0.3,0,0.6,0,0.9,0c3.1,0,6-0.8,8.4-2.2
	l0.8-0.4L54.2,70.6z"/>
</svg>
